# xmcd
#
# Track frame offsets:
#	150
#	14987
#	31353
#	49977
#	61719
#	74404
#	92065
#	101432
#	121869
#	139610
#	153127
#	167965
#
# Disc length: 2433 seconds
# Revision: 0
# Processed by: cddbd v1.5.2PL0 Copyright (c) Steve Scherf et al.
# Submitted via: dBpowerAMP V12.0
#
DISCID=9f097f0c
DTITLE=James King - Three Chords and the Truth
DYEAR=2013
DGENRE=Country
TTITLE0=The Devil's Train
TTITLE1=Jason's Farm
TTITLE2=Chiseled in Stone
TTITLE3=Highway to Nowhere
TTITLE4=Talkin' to the Wall
TTITLE5=He Stopped Loving Her Today
TTITLE6=Blue Blue Day
TTITLE7=Riding With Private Malone
TTITLE8=Things Have Gone to Pieces
TTITLE9=Sunday Morning Christian
TTITLE10=Shadows of My Mind
TTITLE11=Old Five and Dimers
EXTD=
EXTT0=
EXTT1=
EXTT2=
EXTT3=
EXTT4=
EXTT5=
EXTT6=
EXTT7=
EXTT8=
EXTT9=
EXTT10=
EXTT11=
PLAYORDER=
